HIERARCHY
ROOT root
{
  OFFSET 0 87.9003 0
  CHANNELS 6 Xposition Yposition Zposition Zrotation Xrotation Yrotation
  JOINT torso_1
  {
    OFFSET 0 4.78511 -1.08482
    CHANNELS 6 Xposition Yposition Zposition Zrotation Xrotation Yrotation
    JOINT torso_2
    {
      OFFSET 0 5.29195 1.00949
      CHANNELS 6 Xposition Yposition Zposition Zrotation Xrotation Yrotation
      JOINT torso_3
      {
        OFFSET -9.66735e-18 5.64355 0.108362
        CHANNELS 6 Xposition Yposition Zposition Zrotation Xrotation Yrotation
        JOINT torso_4
        {
          OFFSET -1.04072e-17 6.12977 -0.417886
          CHANNELS 6 Xposition Yposition Zposition Zrotation Xrotation Yrotation
          JOINT torso_5
          {
            OFFSET -1.85891e-17 7.16586 -1.41888
            CHANNELS 6 Xposition Yposition Zposition Zrotation Xrotation Yrotation
            JOINT torso_6
            {
              OFFSET -2.38665e-17 8.94839 -0.861631
              CHANNELS 6 Xposition Yposition Zposition Zrotation Xrotation Yrotation
              JOINT torso_7
              {
                OFFSET -2.73615e-17 9.94144 1.48576
                CHANNELS 6 Xposition Yposition Zposition Zrotation Xrotation Yrotation
                JOINT neck_1
                {
                  OFFSET -1.21725e-17 4.50977 0.67399
                  CHANNELS 6 Xposition Yposition Zposition Zrotation Xrotation Yrotation
                  JOINT neck_2
                  {
                    OFFSET -1.70689e-17 4.54241 0.39741
                    CHANNELS 6 Xposition Yposition Zposition Zrotation Xrotation Yrotation
                    JOINT head
                    {
                      OFFSET -1.89342e-17 4.5512 0.720839
                      CHANNELS 6 Xposition Yposition Zposition Zrotation Xrotation Yrotation
                      End Site
                      {
                        OFFSET 0 0.1 0
                      }
                    }
                  }
                }
                JOINT l_shoulder
                {
                  OFFSET 1.16172 -7.16758 7.09827
                  CHANNELS 6 Xposition Yposition Zposition Zrotation Xrotation Yrotation
                  JOINT l_up_arm
                  {
                    OFFSET 12.2059 3.06167 -3.07978
                    CHANNELS 6 Xposition Yposition Zposition Zrotation Xrotation Yrotation
                    JOINT l_low_arm
                    {
                      OFFSET 27.5197 0.056351 0.129118
                      CHANNELS 6 Xposition Yposition Zposition Zrotation Xrotation Yrotation
                      JOINT l_hand
                      {
                        OFFSET 22.8331 0.0467536 0.107129
                        CHANNELS 6 Xposition Yposition Zposition Zrotation Xrotation Yrotation
                        End Site
                        {
                          OFFSET 0.1 0 0
                        }
                      }
                    }
                  }
                }
                JOINT r_shoulder
                {
                  OFFSET -1.16172 -7.16756 7.09818
                  CHANNELS 6 Xposition Yposition Zposition Zrotation Xrotation Yrotation
                  JOINT r_up_arm
                  {
                    OFFSET -12.2059 3.06167 -3.07978
                    CHANNELS 6 Xposition Yposition Zposition Zrotation Xrotation Yrotation
                    JOINT r_low_arm
                    {
                      OFFSET -27.5197 0.056351 0.129118
                      CHANNELS 6 Xposition Yposition Zposition Zrotation Xrotation Yrotation
                      JOINT r_hand
                      {
                        OFFSET -22.8331 0.0467534 0.107129
                        CHANNELS 6 Xposition Yposition Zposition Zrotation Xrotation Yrotation
                        End Site
                        {
                          OFFSET -0.1 0 0
                        }
                      }
                    }
                  }
                }
              }
            }
          }
        }
      }
    }
  }
  JOINT l_up_leg
  {
    OFFSET 8.70282 -3.96247 1.9152
    CHANNELS 6 Xposition Yposition Zposition Zrotation Xrotation Yrotation
    JOINT l_low_leg
    {
      OFFSET -0.803084 -36.5309 -0.617314
      CHANNELS 6 Xposition Yposition Zposition Zrotation Xrotation Yrotation
      JOINT l_foot
      {
        OFFSET -2.19176 -38.0664 -5.69911
        CHANNELS 6 Xposition Yposition Zposition Zrotation Xrotation Yrotation
        JOINT l_toes
        {
          OFFSET 0.734061 -9.31305 11.7736
          CHANNELS 6 Xposition Yposition Zposition Zrotation Xrotation Yrotation
          End Site
          {
            OFFSET 0 0 0.1
          }
        }
      }
    }
  }
  JOINT r_up_leg
  {
    OFFSET -8.70282 -3.96247 1.9152
    CHANNELS 6 Xposition Yposition Zposition Zrotation Xrotation Yrotation
    JOINT r_low_leg
    {
      OFFSET 0.803084 -36.5309 -0.617314
      CHANNELS 6 Xposition Yposition Zposition Zrotation Xrotation Yrotation
      JOINT r_foot
      {
        OFFSET 2.19176 -38.0664 -5.69911
        CHANNELS 6 Xposition Yposition Zposition Zrotation Xrotation Yrotation
        JOINT r_toes
        {
          OFFSET -0.734061 -9.31305 11.7736
          CHANNELS 6 Xposition Yposition Zposition Zrotation Xrotation Yrotation
          End Site
          {
            OFFSET 0 0 0.1
          }
        }
      }
    }
  }
}
MOTION
Frames: 4
Frame Time: 0.016667
0 87.9003 0 -0 0 -0 0 4.78511 -1.08482 -0 0 -0 0 5.29195 1.00949 -0 0 -0 -9.66735e-18 5.64355 0.108362 -0 0 -0 -1.04072e-17 6.12977 -0.417886 -0 0 -0 -1.85891e-17 7.16586 -1.41888 -0 0 -0 -2.38665e-17 8.94839 -0.861631 -0 0 -0 -2.73615e-17 9.94144 1.48576 -0 0 -0 -1.21725e-17 4.50977 0.67399 -0 0 -0 -1.70689e-17 4.54241 0.39741 -0 0 -0 -1.89342e-17 4.5512 0.720839 -0 0 -0 1.16172 -7.16758 7.09827 -0 0 -0 12.2059 3.06167 -3.07978 -0 0 -0 27.5197 0.056351 0.129118 -0 0 -0 22.8331 0.0467536 0.107129 -0 0 -0 -1.16172 -7.16756 7.09818 -0 0 -0 -12.2059 3.06167 -3.07978 -0 0 -0 -27.5197 0.056351 0.129118 -0 0 -0 -22.8331 0.0467534 0.107129 -0 0 -0 8.70282 -3.96247 1.9152 -0 0 -0 -0.803084 -36.5309 -0.617314 -0 0 -0 -2.19176 -38.0664 -5.69911 -0 0 -0 0.734061 -9.31305 11.7736 -0 0 -0 -8.70282 -3.96247 1.9152 -0 0 -0 0.803084 -36.5309 -0.617314 -0 0 -0 2.19176 -38.0664 -5.69911 -0 0 -0 -0.734061 -9.31305 11.7736 -0 0 -0 
-18.9173 87.8777 -1136.12 -2.58587 6.51358 -0.958732 0 4.78511 -1.08482 0.265256 0.514055 0.0406577 0 5.29195 1.00949 0.458261 0.457315 0.0197376 -9.66735e-18 5.64355 0.108362 0.461051 0.453361 0.136096 -1.04072e-17 6.12977 -0.417886 0.477699 0.0624648 0.160045 -1.85891e-17 7.16586 -1.41888 0.49651 -0.343869 0.060079 -2.38665e-17 8.94839 -0.861631 0.550397 -1.03798 -0.274288 -2.73615e-17 9.94144 1.48576 -0.0300563 1.00415 0.00564941 -1.21725e-17 4.50977 0.67399 0.244109 -7.4266 -2.03943 -1.70689e-17 4.54241 0.39741 0.927739 -5.06583 -1.03496 -1.89342e-17 4.5512 0.720839 0.735276 -2.65411 2.03253 1.16172 -7.16758 7.09827 -1.05038 5.2077 -2.96567 12.2059 3.06167 -3.07978 -82.6581 21.3118 -4.156 27.5197 0.056351 0.129118 1.70762 -0.114416 -8.25659 22.8331 0.0467536 0.107129 0.132443 -23.0086 -4.505 -1.16172 -7.16756 7.09818 1.76723 6.02025 2.33977 -12.2059 3.06167 -3.07978 78.8118 24.0243 7.59819 -27.5197 0.056351 0.129118 -2.12189 -0.17966 10.2762 -22.8331 0.0467534 0.107129 3.69409 -22.5773 5.25451 8.70282 -3.96247 1.9152 2.81427 -11.612 -16.5765 -0.803084 -36.5309 -0.617314 -1.13964 4.25548 -0.0319657 -2.19176 -38.0664 -5.69911 0.589997 -2.21187 15.1947 0.734061 -9.31305 11.7736 -1.49989e-16 -6.79364e-16 -1.81524e-16 -8.70282 -3.96247 1.9152 1.21213 -9.64384 18.7246 0.803084 -36.5309 -0.617314 0.165653 0.618338 0.00989963 2.19176 -38.0664 -5.69911 0.308389 2.01867 -15.0172 -0.734061 -9.31305 11.7736 -3.34248e-16 -3.97371e-16 -1.25878e-14 
-18.9182 87.8788 -1136.12 -2.57275 6.49367 -0.959687 0 4.78511 -1.08482 0.259033 0.523084 0.0397263 0 5.29195 1.00949 0.453434 0.464395 0.0178815 -9.66735e-18 5.64355 0.108362 0.457836 0.458363 0.133992 -1.04072e-17 6.12977 -0.417886 0.476009 0.0638446 0.157903 -1.85891e-17 7.16586 -1.41888 0.496259 -0.345139 0.058118 -2.38665e-17 8.94839 -0.861631 0.550772 -1.04051 -0.276422 -2.73615e-17 9.94144 1.48576 -0.0306422 1.00455 0.00566643 -1.21725e-17 4.50977 0.67399 0.222337 -7.40635 -2.1404 -1.70689e-17 4.54241 0.39741 0.932071 -5.07401 -1.08066 -1.89342e-17 4.5512 0.720839 0.752444 -2.67299 2.01198 1.16172 -7.16758 7.09827 -1.04686 5.21009 -2.96456 12.2059 3.06167 -3.07978 -82.6831 21.3241 -4.11895 27.5197 0.056351 0.129118 1.7074 -0.114386 -8.25555 22.8331 0.0467536 0.107129 0.130125 -23.039 -4.50574 -1.16172 -7.16756 7.09818 1.75609 6.01983 2.34151 -12.2059 3.06167 -3.07978 78.8197 24.0503 7.59372 -27.5197 0.056351 0.129118 -2.11958 -0.179253 10.2649 -22.8331 0.0467534 0.107129 3.70138 -22.6044 5.25514 8.70282 -3.96247 1.9152 2.80294 -11.5792 -16.5783 -0.803084 -36.5309 -0.617314 -1.13383 4.23382 -0.0320176 -2.19176 -38.0664 -5.69911 0.578055 -2.19741 15.1946 0.734061 -9.31305 11.7736 5.04543e-17 -6.70704e-16 -1.94052e-16 -8.70282 -3.96247 1.9152 1.20034 -9.61852 18.7236 0.803084 -36.5309 -0.617314 0.162994 0.60841 0.00975481 2.19176 -38.0664 -5.69911 0.304443 2.02025 -15.0165 -0.734061 -9.31305 11.7736 -6.00124e-16 -3.85884e-16 -1.25795e-14 
-18.9191 87.8809 -1136.12 -2.57293 6.46069 -0.961446 0 4.78511 -1.08482 0.255179 0.537283 0.0389619 0 5.29195 1.00949 0.450933 0.474761 0.0164239 -9.66735e-18 5.64355 0.108362 0.45664 0.464868 0.132392 -1.04072e-17 6.12977 -0.417886 0.476084 0.0633954 0.156311 -1.85891e-17 7.16586 -1.41888 0.497527 -0.349979 0.056423 -2.38665e-17 8.94839 -0.861631 0.552484 -1.04763 -0.278671 -2.73615e-17 9.94144 1.48576 -0.0311017 1.00539 0.00578259 -1.21725e-17 4.50977 0.67399 0.203047 -7.38745 -2.24015 -1.70689e-17 4.54241 0.39741 0.94556 -5.08464 -1.12545 -1.89342e-17 4.5512 0.720839 0.779163 -2.6798 1.98733 1.16172 -7.16758 7.09827 -1.04565 5.21618 -2.96816 12.2059 3.06167 -3.07978 -82.7089 21.334 -4.08099 27.5197 0.056351 0.129118 1.70726 -0.114366 -8.25485 22.8331 0.0467536 0.107129 0.13145 -23.064 -4.49457 -1.16172 -7.16756 7.09818 1.74557 6.02321 2.3453 -12.2059 3.06167 -3.07978 78.8337 24.0642 7.58218 -27.5197 0.056351 0.129118 -2.1175 -0.178888 10.2547 -22.8331 0.0467534 0.107129 3.70451 -22.6094 5.24669 8.70282 -3.96247 1.9152 2.80534 -11.5325 -16.5885 -0.803084 -36.5309 -0.617314 -1.12788 4.21162 -0.0320684 -2.19176 -38.0664 -5.69911 0.568793 -2.18501 15.1948 0.734061 -9.31305 11.7736 -2.80853e-16 -6.85018e-16 -1.73345e-16 -8.70282 -3.96247 1.9152 1.2022 -9.57773 18.7268 0.803084 -36.5309 -0.617314 0.158473 0.59153 0.00950751 2.19176 -38.0664 -5.69911 0.305347 2.03836 -15.0154 -0.734061 -9.31305 11.7736 -6.00124e-16 -3.85884e-16 -1.25795e-14 
